<svg width="63" height="59" viewBox="0 0 63 59" fill="none" xmlns="http://www.w3.org/2000/svg">
<path id="Exclude" fill-rule="evenodd" clip-rule="evenodd" d="M58.939 31.4133C58.9794 30.7807 59 30.1428 59 29.5C59 15.8864 49.7785 4.42653 37.2411 1.02614C39.2057 0.360785 41.3107 0 43.5 0C54.2696 0 63 8.73045 63 19.5C63 23.9861 61.4851 28.1184 58.939 31.4133ZM58.939 31.4133C57.9531 46.814 45.1496 59 29.5 59C13.2076 59 0 45.7924 0 29.5C0 13.2076 13.2076 0 29.5 0C32.1788 0 34.7741 0.357046 37.2411 1.02614C29.5417 3.63381 24 10.9197 24 19.5C24 30.2696 32.7304 39 43.5 39C49.7834 39 55.3727 36.0281 58.939 31.4133Z" fill="#6C40E9"/>
</svg>
